<svg width="16" height="16" viewBox="0 0 16 16" fill="none" xmlns="http://www.w3.org/2000/svg">
<rect width="16" height="16" fill="#FE7BB4"/>
<circle cx="8" cy="7" r="5" fill="black"/>
<path d="M13 8C13 10.7614 10.7614 13 8 13C5.23858 13 3 10.7614 3 8C3 5.23858 5.23858 3 8 3C10.7614 3 13 5.23858 13 8Z" fill="#FE7BB4"/>
<path d="M6.10742 8.2832C6.10742 8.05924 6.16211 7.8776 6.27148 7.73828C6.38086 7.59896 6.5319 7.5293 6.72461 7.5293C6.8431 7.5293 6.94076 7.55924 7.01758 7.61914C7.0944 7.67773 7.15169 7.74544 7.18945 7.82227L7.08398 7.85938C6.99414 7.70964 6.87435 7.63477 6.72461 7.63477C6.56966 7.63477 6.44922 7.69466 6.36328 7.81445C6.27734 7.93294 6.23438 8.08919 6.23438 8.2832C6.23438 8.48372 6.27799 8.64128 6.36523 8.75586C6.45378 8.87044 6.57161 8.92773 6.71875 8.92773C6.85156 8.92773 6.95247 8.88346 7.02148 8.79492C7.0918 8.70638 7.12695 8.60156 7.12695 8.48047V8.3418H6.70117V8.23633H7.24805V9H7.15625L7.14648 8.76172C7.07227 8.94401 6.92839 9.03516 6.71484 9.03516C6.53125 9.03516 6.38411 8.9681 6.27344 8.83398C6.16276 8.69857 6.10742 8.51497 6.10742 8.2832ZM7.50195 8.2832C7.50195 8.05924 7.55664 7.8776 7.66602 7.73828C7.77539 7.59896 7.92643 7.5293 8.11914 7.5293C8.23763 7.5293 8.33529 7.55924 8.41211 7.61914C8.48893 7.67773 8.54622 7.74544 8.58398 7.82227L8.47852 7.85938C8.38867 7.70964 8.26888 7.63477 8.11914 7.63477C7.96419 7.63477 7.84375 7.69466 7.75781 7.81445C7.67188 7.93294 7.62891 8.08919 7.62891 8.2832C7.62891 8.48372 7.67253 8.64128 7.75977 8.75586C7.84831 8.87044 7.96615 8.92773 8.11328 8.92773C8.24609 8.92773 8.34701 8.88346 8.41602 8.79492C8.48633 8.70638 8.52148 8.60156 8.52148 8.48047V8.3418H8.0957V8.23633H8.64258V9H8.55078L8.54102 8.76172C8.4668 8.94401 8.32292 9.03516 8.10938 9.03516C7.92578 9.03516 7.77865 8.9681 7.66797 8.83398C7.55729 8.69857 7.50195 8.51497 7.50195 8.2832Z" fill="white"/>
</svg>
